<svg xmlns="http://www.w3.org/2000/svg" xmlns:xlink="http://www.w3.org/1999/xlink" xmlns:serif="http://www.serif.com/" width="100%" height="100%" viewBox="0 0 325 184" xml:space="preserve" style="fill-rule:evenodd;clip-rule:evenodd;stroke-linejoin:round;stroke-miterlimit:2;">    <g transform="matrix(1,0,0,1,-3341.67,-309.284)">        <g transform="matrix(1.66579,0,0,1.66579,2738.81,-764.878)">            <g transform="matrix(1,0,0,1,-3018.77,580.098)">                <path d="M3474.22,90.217C3483.99,74.903 3501.12,64.738 3520.62,64.738C3550.97,64.738 3575.62,89.383 3575.62,119.738C3575.62,150.094 3550.97,174.738 3520.62,174.738C3499.39,174.738 3480.96,162.687 3471.79,145.059L3475.52,145.059C3484.39,160.811 3501.27,171.459 3520.62,171.459C3549.17,171.459 3572.34,148.284 3572.34,119.738C3572.34,91.193 3549.17,68.017 3520.62,68.017C3503.05,68.017 3487.51,76.802 3478.16,90.217L3474.22,90.217Z" style="fill:url(#_Linear1);"></path>            </g>            <g transform="matrix(1,0,0,1,4.68435,0.647841)">                <g transform="matrix(1,0,0,1,32.0754,-21.1548)">                    <path d="M337.848,737.762C337.518,737.762 337.298,737.615 337.188,737.322L325.198,699.867L325.143,699.647C325.143,699.39 325.308,699.262 325.638,699.262L328.608,699.262C328.938,699.262 329.158,699.408 329.268,699.702L339.278,731.932C339.314,732.005 339.369,732.042 339.443,732.042C339.516,732.042 339.571,732.005 339.608,731.932L349.618,699.702C349.728,699.408 349.948,699.262 350.278,699.262L353.193,699.262C353.596,699.262 353.743,699.463 353.633,699.867L341.533,737.322C341.423,737.615 341.203,737.762 340.873,737.762L337.848,737.762Z" style="fill:rgb(254,253,254);fill-rule:nonzero;"></path>                </g>                <g transform="matrix(1,0,0,1,32.0754,-21.1548)">                    <path d="M383.993,699.262C384.359,699.262 384.543,699.445 384.543,699.812L384.543,702.177C384.543,702.543 384.359,702.727 383.993,702.727L373.213,702.727C373.066,702.727 372.993,702.8 372.993,702.947L372.993,737.212C372.993,737.578 372.809,737.762 372.443,737.762L369.638,737.762C369.271,737.762 369.088,737.578 369.088,737.212L369.088,702.947C369.088,702.8 369.014,702.727 368.868,702.727L358.528,702.727C358.161,702.727 357.978,702.543 357.978,702.177L357.978,699.812C357.978,699.445 358.161,699.262 358.528,699.262L383.993,699.262Z" style="fill:rgb(254,253,254);fill-rule:nonzero;"></path>                </g>                <g transform="matrix(1,0,0,1,32.0754,-21.1548)">                    <path d="M392.628,737.762C392.261,737.762 392.078,737.578 392.078,737.212L392.078,699.812C392.078,699.445 392.261,699.262 392.628,699.262L395.433,699.262C395.799,699.262 395.983,699.445 395.983,699.812L395.983,737.212C395.983,737.578 395.799,737.762 395.433,737.762L392.628,737.762Z" style="fill:rgb(254,253,254);fill-rule:nonzero;"></path>                </g>                <g transform="matrix(1,0,0,1,32.0754,-21.1548)">                    <path d="M463.468,699.812C463.468,699.445 463.651,699.262 464.018,699.262L466.823,699.262C467.189,699.262 467.373,699.445 467.373,699.812L467.373,737.212C467.373,737.578 467.189,737.762 466.823,737.762L464.073,737.762C463.816,737.762 463.596,737.633 463.413,737.377L444.658,706.852C444.621,706.742 444.566,706.696 444.493,706.714C444.419,706.733 444.383,706.797 444.383,706.907L444.438,737.212C444.438,737.578 444.254,737.762 443.888,737.762L441.083,737.762C440.716,737.762 440.533,737.578 440.533,737.212L440.533,699.812C440.533,699.445 440.716,699.262 441.083,699.262L443.833,699.262C444.089,699.262 444.309,699.39 444.493,699.647L463.248,730.172C463.284,730.282 463.339,730.328 463.413,730.309C463.486,730.291 463.523,730.227 463.523,730.117L463.468,699.812Z" style="fill:rgb(254,253,254);fill-rule:nonzero;"></path>                </g>                <g transform="matrix(1,0,0,1,-3023.45,577.523)">                    <path d="M3471.79,139.419C3469.98,139.216 3468.33,138.72 3466.86,137.929C3464.88,136.865 3463.35,135.371 3462.26,133.446C3461.18,131.521 3460.64,129.294 3460.64,126.764L3460.64,112.904C3460.64,110.374 3461.18,108.146 3462.26,106.221C3463.35,104.296 3464.88,102.802 3466.86,101.739C3468.33,100.948 3469.98,100.451 3471.79,100.248L3471.79,103.71C3469.92,104.027 3468.35,104.827 3467.08,106.111C3465.39,107.816 3464.55,110.062 3464.55,112.849L3464.55,126.929C3464.55,129.715 3465.39,131.952 3467.08,133.639C3468.35,134.909 3469.92,135.701 3471.79,136.015L3471.79,139.419ZM3475.79,100.262C3477.57,100.473 3479.18,100.965 3480.64,101.739C3482.63,102.802 3484.17,104.296 3485.26,106.221C3486.34,108.146 3486.88,110.374 3486.88,112.904L3486.88,126.764C3486.88,129.294 3486.34,131.521 3485.26,133.446C3484.17,135.371 3482.63,136.865 3480.64,137.929C3479.18,138.702 3477.57,139.195 3475.79,139.405L3475.79,135.998C3477.64,135.674 3479.2,134.887 3480.44,133.639C3482.13,131.952 3482.97,129.715 3482.97,126.929L3482.97,112.849C3482.97,110.062 3482.13,107.816 3480.44,106.111C3479.2,104.849 3477.64,104.054 3475.79,103.726L3475.79,100.262Z" style="fill:rgb(254,253,254);fill-rule:nonzero;"></path>                </g>            </g>        </g>    </g>    <defs>        <linearGradient id="_Linear1" x1="0" y1="0" x2="1" y2="0" gradientUnits="userSpaceOnUse" gradientTransform="matrix(103.829,0,0,110,3471.79,119.738)"><stop offset="0" style="stop-color:rgb(0,255,255);stop-opacity:1"></stop><stop offset="0.19" style="stop-color:rgb(0,65,183);stop-opacity:1"></stop><stop offset="0.37" style="stop-color:rgb(0,0,158);stop-opacity:1"></stop><stop offset="0.55" style="stop-color:rgb(177,0,158);stop-opacity:1"></stop><stop offset="0.69" style="stop-color:rgb(255,0,158);stop-opacity:1"></stop><stop offset="0.84" style="stop-color:rgb(255,0,117);stop-opacity:1"></stop><stop offset="1" style="stop-color:rgb(255,0,0);stop-opacity:1"></stop></linearGradient>    </defs></svg>